<svg t="1592828226916" class="icon" viewBox="0 0 1024 1024" version="1.1" xmlns="http://www.w3.org/2000/svg" p-id="5214" width="16" height="16"><path d="M514 114.3c-219.9 0-398.8 178.9-398.8 398.8 0 220 178.9 398.9 398.8 398.9s398.8-178.9 398.8-398.8S733.9 114.3 514 114.3z m168.6 488.2c21.8 21.8 21.8 57.5 0 79.3s-57.5 21.8-79.3 0L514 592.5l-89.3 89.3c-21.8 21.8-57.5 21.8-79.3 0s-21.8-57.5 0-79.3l89.3-89.3-89.3-89.3c-21.8-21.8-21.8-57.5 0-79.3 21.8-21.8 57.5-21.8 79.3 0l89.3 89.3 89.3-89.3c21.8-21.8 57.5-21.8 79.3 0 21.8 21.8 21.8 57.5 0 79.3l-89.3 89.3 89.3 89.3z" p-id="5215"></path></svg>