<svg t="1606879351547" class="icon" viewBox="0 0 1024 1024" version="1.1" xmlns="http://www.w3.org/2000/svg" p-id="2604" width="200" height="200"><path d="M894.6 614.8l-52.2-375c-6.6-45.8-44.5-82.8-84.6-82.8H266.3c-40.1 0-78 37-84.6 82.8l-52.2 375C122.7 660.6 153.2 723 204 723h279.5v35.6c-77.6 10.5-136.7 61.9-136.7 108.4h330.4c0-46.5-59-97.9-136.7-108.4V723H817c50.9 0 84.4-62.4 77.6-108.2z m-117.4 37.4H249.8c-43.5 0-74.8-31.3-69.9-69.8 12.9-105.4 25.8-210.7 38.6-316.1 4.9-38.6 38.1-69.8 74.1-69.8h441.1c36 0 69.2 31.2 74.2 69.8 13 105.4 26 210.7 39 316.1 5.1 38.5-26.2 69.8-69.7 69.8zM226 474.2h163.4l4.1-104.2h-156c-3.9 34.8-7.7 69.5-11.5 104.2z m361.8-249.9H440.2l-3.9 98.8h155.5l-4-98.8z m5.9 145.8H434.4l-4 104.2H598l-4.3-104.2zM806 521.2H640.9l4.2 103h102.6c38.7 0 66.8-27.4 62.9-61.3-1.5-13.8-3-27.8-4.6-41.7z m-377.4 0l-4.1 103h179.6l-4.3-103H428.6z m360.7-151.1H634.8l4.3 104.2h161.8c-3.9-34.8-7.8-69.5-11.6-104.2z m-542.6-84.5c-1.4 12.5-2.7 25-4.1 37.5h152.7l3.9-98.8H313c-32.8 0-62.5 27.4-66.3 61.3z m533.2 0c-3.9-33.9-33.6-61.3-66.3-61.3h-84.8l4.1 98.8h151.2l-4.2-37.5zM216.2 563c-3.9 33.9 24.3 61.3 62.9 61.3h104.3l4.1-103H220.8c-1.5 13.8-3.1 27.8-4.6 41.7z" p-id="2605" fill="#1296db"></path></svg>