<svg t="1606734916776" class="icon" viewBox="0 0 1024 1024" version="1.1" xmlns="http://www.w3.org/2000/svg" p-id="2548" width="64" height="64"><path d="M827.7 788.8H811V589.6c0-18.8-15-33.3-33.5-33.3h-65.8c-18.8 0-33.6 14.9-33.6 33.3v199.2h-33.2V324c0-18.5-15-33.5-33.5-33.5h-65.8c-18.8 0-33.5 15-33.5 33.5v76.8l-133-198.9-157.9 236.4 0.4-0.3c-26.1 31-41.8 69.8-41.8 112.1 0 90.9 71.8 166.3 166.1 180.8v57.9h-16.7c-9 0-16.5 7.4-16.5 16.6 0 8.9 7.4 16.6 16.5 16.6h498.5c9 0 16.5-7.4 16.5-16.6 0-8.9-7.4-16.6-16.5-16.6zM226.5 550.1c0-38.5 16.9-73.4 44.2-98.8l96.2-136.6 12.2-18.2 21.4 34.7 80.9 114.9c12.1 10.1 22.5 22 30.6 35.1v137.9c-8.7 14.1-20 26.7-33.2 37.3V456.5c0-18.3-15-33.1-33.5-33.1h-65.8c-18.8 0-33.5 14.8-33.5 33.1v230.6c-68.4-13.9-119.5-70-119.5-137z m252.3 238.7v-79.9c11.9-6.3 23-13.8 33.2-22.2v102.1h-33.2z" p-id="2549" fill="#13227a"></path></svg>