<svg t="1593191916997" class="icon" viewBox="0 0 1024 1024" version="1.1" xmlns="http://www.w3.org/2000/svg" p-id="9977" width="64" height="64"><path d="M512 512m-512 0a512 512 0 1 0 1024 0 512 512 0 1 0-1024 0Z" fill="#EDECF0" p-id="9978"></path><path d="M512 512m-426.666667 0a426.666667 426.666667 0 1 0 853.333334 0 426.666667 426.666667 0 1 0-853.333334 0Z" fill="#5AB546" p-id="9979"></path><path d="M512 512m-341.333333 0a341.333333 341.333333 0 1 0 682.666666 0 341.333333 341.333333 0 1 0-682.666666 0Z" fill="#EDECF0" p-id="9980"></path><path d="M394.296889 619.918222v70.883556c5.688889-4.778667 12.117333-10.183111 18.773333-16.554667l2.844445 11.776a220.899556 220.899556 0 0 1-31.857778 25.486222l-4.437333-10.353777a8.533333 8.533333 0 0 0 3.640888-6.712889V630.897778h-23.438222v-10.979556z m11.377778-22.755555l-7.793778 7.964444a173.568 173.568 0 0 0-27.420445-24.689778l7.964445-7.793777a181.589333 181.589333 0 0 1 27.306667 24.632888z m47.160889 21.674666v-47.957333h11.776v47.957333h40.96v11.377778h-40.96v87.153778H452.835556v-86.926222H409.6v-11.377778zM600.234667 617.813333l-46.193778 7.168c0.967111 8.590222 2.048 16.270222 3.527111 23.267556a178.574222 178.574222 0 0 0 4.778667 18.318222 149.674667 149.674667 0 0 0 23.893333-37.774222l10.012444 5.233778a156.728889 156.728889 0 0 1-29.468444 45.056 96.256 96.256 0 0 0 5.12 10.695111c5.688889 9.386667 11.377778 14.165333 16.099556 14.336 2.844444-0.455111 5.688889-8.760889 8.931555-25.031111l9.728 6.200889a134.883556 134.883556 0 0 1-7.168 20.707555c-3.185778 6.712889-6.826667 10.183111-10.808889 10.183111q-10.979556 0-21.959111-15.303111a89.770667 89.770667 0 0 1-7.964444-13.994667 128.341333 128.341333 0 0 1-33.621334 20.707556l-6.826666-10.353778a112.924444 112.924444 0 0 0 35.669333-22.129778 172.999111 172.999111 0 0 1-5.688889-19.285333 201.955556 201.955556 0 0 1-5.12-29.127111l-20.707555 3.185778-1.763556-11.377778 21.333333-3.356444q-1.934222-19.569778-1.934222-43.975112H551.822222c0 15.587556 0.455111 29.639111 1.422222 42.211556l45.511112-6.997333z m-10.524445-23.552l-9.728 4.778667a182.044444 182.044444 0 0 0-16.725333-23.552l9.386667-4.608a221.866667 221.866667 0 0 1 17.066666 23.381333z m35.84-9.216v99.384889h-11.377778v-99.384889z m-5.688889 130.844445l-2.56-10.979556c7.623111 0.455111 14.791111 0.796444 21.504 0.796445a6.656 6.656 0 0 0 7.452445-7.566223v-126.464h11.377778v129.365334a13.198222 13.198222 0 0 1-14.961778 14.791111z" fill="#5AB546" p-id="9981"></path><path d="M478.492444 444.814222l-34.133333-33.450666-21.390222 56.888888 55.352889-23.608888z m109.112889-106.894222l-35.100444-36.181333-101.717333 100.579555 36.465777 37.831111 100.352-102.001777z m28.899556-27.648c6.599111-7.054222-3.527111-18.318222-3.527111-18.318222a85.333333 85.333333 0 0 0-16.440889-15.416889 14.563556 14.563556 0 0 0-18.944 0l-18.090667 18.090667 36.750222 36.579555s15.473778-15.644444 20.252445-20.992zM405.276444 482.588444h204.401778V500.622222H405.276444v-18.033778z" fill="#5AB546" p-id="9982"></path></svg>