<svg t="1593166842656" class="icon" viewBox="0 0 1170 1024" version="1.1" xmlns="http://www.w3.org/2000/svg" p-id="2139" width="64" height="64"><path d="M1039.959994 127.982665h-227.519429V64.00425a64.56336 64.56336 0 0 0-65.00207-64.002788H422.428147a64.56336 64.56336 0 0 0-65.002069 64.002788v63.978415H129.931021A129.175466 129.175466 0 0 0 0 256.061358v639.979131a129.175466 129.175466 0 0 0 130.004139 127.981203h910.028974A129.175466 129.175466 0 0 0 1169.891015 895.967371V256.061358a129.175466 129.175466 0 0 0-130.004139-128.005575zM422.428147 64.00425h325.010348v63.978415H422.428147V64.00425z m-292.472753 127.981203H1039.984367a64.56336 64.56336 0 0 1 65.00207 64.002787v191.98399H64.928951V256.061358a64.612106 64.612106 0 0 1 65.00207-64.002787zM676.440734 511.975018a97.490918 97.490918 0 0 1-183.014826 0h183.014826z m363.51926 447.995141H129.931021a64.56336 64.56336 0 0 1-65.00207-64.002788V511.975018h360.716397a163.029188 163.029188 0 0 0 318.454083 0h360.716397v383.992353a64.612106 64.612106 0 0 1-65.00207 64.002788z m0 0" p-id="2140"></path></svg>