<svg t="1595862777566" class="icon" viewBox="0 0 1024 1024" version="1.1" xmlns="http://www.w3.org/2000/svg" p-id="2311" xmlns:xlink="http://www.w3.org/1999/xlink" width="64" height="64"><defs><style type="text/css"></style></defs><path d="M562.3 589.8v334.9c0 19.8 18.2 34.3 37.6 30.6 181.6-34.3 324.7-177.4 359-359 3.7-19.4-10.8-37.6-30.6-37.6H593.4c-17.1 0-31.1 13.9-31.1 31.1zM593.4 465.3h334.9c19.8 0 34.3-18.2 30.6-37.6-34.3-181.6-177.4-324.7-359-359-19.4-3.7-37.6 10.8-37.6 30.6v334.9c0 17.2 14 31.1 31.1 31.1zM469 99.4c0-19.6-18-34.3-37.3-30.7C222.7 108 64.5 291.5 64.5 512s158.2 404 367.2 443.3c19.3 3.7 37.3-11 37.3-30.7V99.4z" fill="#2a4bd5" p-id="2312"></path></svg>